<?xml version="1.0" standalone="no"?>
<!DOCTYPE svg PUBLIC "-//W3C//DTD SVG 20010904//EN"
 "http://www.w3.org/TR/2001/REC-SVG-20010904/DTD/svg10.dtd">
<svg version="1.0" xmlns="http://www.w3.org/2000/svg"
 width="176.000000pt" height="176.000000pt" viewBox="0 0 176.000000 176.000000"
 preserveAspectRatio="xMidYMid meet">
<metadata>
Created by potrace 1.11, written by Peter Selinger 2001-2013
</metadata>
<g transform="translate(0.000000,176.000000) scale(0.100000,-0.100000)"
fill="#000000" stroke="none">
<path d="M800 1300 l0 -40 -200 0 -200 0 0 -40 0 -40 -40 0 -40 0 0 -40 0 -40
40 0 40 0 0 40 0 40 200 0 200 0 0 40 0 40 80 0 80 0 0 -40 0 -40 200 0 200 0
0 -40 0 -40 40 0 40 0 0 40 0 40 -40 0 -40 0 0 40 0 40 -200 0 -200 0 0 40 0
40 -80 0 -80 0 0 -40z"/>
<path d="M560 860 l0 -160 40 0 40 0 0 160 0 160 -40 0 -40 0 0 -160z"/>
<path d="M1120 860 l0 -160 40 0 40 0 0 160 0 160 -40 0 -40 0 0 -160z"/>
<path d="M320 580 l0 -40 40 0 40 0 0 -40 0 -40 200 0 200 0 0 -40 0 -40 80 0
80 0 0 40 0 40 200 0 200 0 0 40 0 40 40 0 40 0 0 40 0 40 -40 0 -40 0 0 -40
0 -40 -200 0 -200 0 0 -40 0 -40 -80 0 -80 0 0 40 0 40 -200 0 -200 0 0 40 0
40 -40 0 -40 0 0 -40z"/>
</g>
</svg>
